<?xml version="1.0" standalone="no"?>
<!DOCTYPE svg PUBLIC "-//W3C//DTD SVG 1.1//EN" "http://www.w3.org/Graphics/SVG/1.1/DTD/svg11.dtd" >
<svg xmlns="http://www.w3.org/2000/svg">
<metadata>Generated by IcoMoon</metadata>
<defs>
<font id="icomoon" horiz-adv-x="1024">
<font-face units-per-em="1024" ascent="960" descent="-64" />
<missing-glyph horiz-adv-x="1024" />
<glyph unicode="&#x20;" horiz-adv-x="512" d="" />
<glyph unicode="&#xe900;" glyph-name="angle-down" d="M970.028 652.254c-14.759 17.654-40.946 20.098-58.668 5.338l-399.36-332.95-399.374 332.95c-17.654 14.691-43.909 12.315-58.655-5.338-14.746-17.667-12.37-43.909 5.27-58.668l426.093-355.164c7.7-6.431 17.19-9.68 26.665-9.68 9.462 0 18.951 3.249 26.651 9.68l426.093 355.178c17.654 14.759 20.029 41.069 5.284 58.655z" />
<glyph unicode="&#xe901;" glyph-name="angle-left" d="M716.268-10.028c17.64 14.759 20.098 40.933 5.325 58.668l-332.964 399.36 332.964 399.36c14.705 17.654 12.315 43.909-5.325 58.668-17.681 14.746-43.923 12.384-58.668-5.284l-355.178-426.080c-6.431-7.714-9.68-17.19-9.68-26.665s3.249-18.951 9.68-26.665l355.178-426.080c14.746-17.667 41.069-20.029 58.668-5.284z" />
<glyph unicode="&#xe902;" glyph-name="angle-right" d="M307.732 906.028c-17.64-14.759-20.098-40.946-5.325-58.668l332.964-399.36-332.964-399.36c-14.705-17.654-12.315-43.909 5.325-58.668 17.681-14.746 43.923-12.384 58.668 5.284l355.178 426.093c6.431 7.7 9.68 17.19 9.68 26.665s-3.249 18.951-9.68 26.665l-355.178 426.066c-14.746 17.667-41.069 20.029-58.668 5.284z" />
<glyph unicode="&#xe903;" glyph-name="check" d="M933.376 699.392c-9.216-7.68-18.432-14.848-26.624-23.040-173.056-172.544-346.112-345.6-518.656-518.656-8.192-8.192-14.336-19.456-23.552-31.744-95.232 94.208-184.32 182.784-273.408 271.36 0 2.048 0 4.608 0 6.656 22.016 18.944 43.52 38.4 66.56 57.856 65.536-66.048 131.584-132.608 197.632-199.68 171.52 171.52 338.944 338.944 508.416 508.416 25.088-23.552 47.616-44.032 69.632-64.512 0-2.048 0-4.096 0-6.656z" />
<glyph unicode="&#xe904;" glyph-name="angle-up" d="M53.972 243.746c14.759-17.654 40.946-20.111 58.668-5.338l399.36 332.977 399.36-332.964c17.667-14.691 43.923-12.315 58.668 5.338 14.746 17.681 12.384 43.909-5.284 58.668l-426.080 355.151c-7.714 6.431-17.19 9.68-26.665 9.68-9.462 0-18.951-3.249-26.651-9.68l-426.093-355.164c-17.654-14.759-20.029-41.083-5.284-58.668z" />
<glyph unicode="&#xe905;" glyph-name="arr-left" d="M26.064 448.041c0 11.878 7.182 27.593 14.391 35.157l409.218 434.804c19.019 19.715 50.067 21.968 72.322 1.993 19.975-17.968 20.371-52.879 1.98-72.308l-328.472-348.515h751.302c28.208 0 51.145-22.91 51.145-51.132 0-28.249-22.938-51.159-51.145-51.159h-751.302l328.472-348.46c18.405-19.456 17.067-53.576-1.98-72.363-20.139-19.825-53.576-18.077-72.322 2.034l-409.231 434.804c-12.015 11.837-14.268 23.156-14.377 35.144z" />
<glyph unicode="&#xe906;" glyph-name="arr-o-left" d="M370.674 797.58l45.575-45.588-271.729-271.756h858.877v-64.485h-859.819l271.729-271.756-45.588-45.575-349.116 349.102z" />
<glyph unicode="&#xe907;" glyph-name="arr-o-right" d="M653.339 797.58l-45.588-45.588 271.729-271.756h-858.877v-64.485h859.819l-271.729-271.756 45.602-45.575 349.102 349.102z" />
<glyph unicode="&#xe908;" glyph-name="arr-right" d="M997.949 448.041c0 11.878-7.195 27.593-14.404 35.157l-409.204 434.804c-19.046 19.715-50.080 21.968-72.322 1.993-19.975-17.968-20.398-52.879-1.993-72.308l328.472-348.515h-751.288c-28.235 0-51.145-22.91-51.145-51.132 0-28.249 22.91-51.159 51.145-51.159h751.302l-328.472-348.46c-18.418-19.456-17.067-53.576 1.993-72.363 20.111-19.825 53.548-18.077 72.322 2.034l409.19 434.818c12.029 11.837 14.268 23.156 14.404 35.13z" />
<glyph unicode="&#xe909;" glyph-name="email" d="M512 318.607l-112.039 98.058-320.362-274.569c11.646-10.854 27.348-17.545 44.687-17.545h775.414c17.244 0 32.918 6.69 44.483 17.545l-320.102 274.569-112.080-98.058zM944.374 753.93c-11.633 10.854-27.293 17.531-44.66 17.531h-775.427c-17.244 0-32.918-6.731-44.564-17.654l432.278-370.497 432.374 370.62zM59.16 714.663v-537.436l312.648 265.653zM652.179 442.88l312.661-265.653v537.627z" />
<glyph unicode="&#xe90a;" glyph-name="calendar" d="M697.962 215.245h186.264v-139.472h-186.264v139.472zM418.717 448h186.264v-139.472h-186.264v139.472zM697.962 448h186.264v-139.472h-186.264v139.472zM418.717 215.245h186.264v-139.472h-186.264v139.472zM837.736 867.019v92.981h-92.981v-92.981h-186.264v92.981h-92.981v-92.981h-186.264v92.981h-92.981v-92.981h-186.264v-931.019h1024v931.019zM930.717 29.283h-837.736v465.208h837.736zM930.717 587.774h-837.736v185.962h93.283v-92.981h92.981v92.981h186.264v-92.981h92.981v92.981h186.264v-92.981h92.981v92.981h92.981zM139.472 215.245h186.264v-139.472h-186.264v139.472zM139.472 448h186.264v-139.472h-186.264v139.472z" />
<glyph unicode="&#xe90b;" glyph-name="facebook" d="M667.006 793.334c3.372 0 6.048-2.785 6.007-6.158-0.014-0.15-0.014-0.287-0.014-0.423-0.014-35.485-0.109-70.956 0.109-106.428 0.027-4.943-1.434-6.185-6.226-6.13-19.306 0.205-38.598 0.177-57.904-0.191-6.554-0.123-13.175-1.133-19.633-2.362-12.179-2.294-21.040-12.165-21.559-25.873-0.942-24.972-0.833-49.985-1.283-74.97-0.082-4.547 2.963-3.782 5.598-3.782 31.444-0.027 62.86-0.014 94.304-0.014h0.437c3.577 0 6.362-3.113 5.98-6.663-3.782-35.99-7.509-71.284-11.264-106.878-0.314-3.058-2.908-5.393-5.98-5.393h-82.917c-3.318 0-6.007-2.69-6.007-6.007 0-0.478 0-0.956 0-1.42-0.041-110.66-0.082-221.334-0.137-331.994 0-0.041 0-0.082 0-0.137 0-3.277-2.731-5.926-6.007-5.926h-117.214c-3.331 0-6.021 2.717-6.007 6.048 0.041 8.274 0.096 16.561 0.096 24.849 0.014 101.868 0 203.735 0.014 305.616 0 0.915 0 1.83 0 2.772 0 3.318-2.69 6.021-6.007 6.021h-74.329c-3.29 0-5.994 2.635-6.007 5.939 0 0.014 0 0.027 0 0.041-0.014 35.676 0.082 71.352-0.123 107.028-0.027 4.929 1.447 6.185 6.24 6.144 24.644-0.218 49.289 0.055 73.933-0.205 5.257-0.055 6.376 1.693 6.39 6.595 0.15 31.99-0.014 63.993 1.133 95.956 0.847 23.265 5.707 45.903 16.493 66.915 11.837 23.060 30.242 38.789 54.695 46.558 13.558 4.301 27.58 7.086 41.711 9.23 2.58 0.382 1.707 0.232 3.263 0.464 0.437 0.068 45.793 0.778 46.257 0.778h65.959z" />
<glyph unicode="&#xe90c;" glyph-name="google-plus" d="M63.775 462.268c2.485 146.951 137.544 275.633 284.454 270.705 70.397 3.29 136.547-27.348 190.478-70.424-22.965-26.105-46.804-51.296-72.294-74.861-64.812 44.824-157 57.59-221.812 5.844-92.733-64.13-96.993-215.545-7.741-284.576 86.699-78.752 250.634-39.608 274.609 80.882-54.313 0.806-108.803 0-163.075 1.789-0.15 32.399-0.287 64.758-0.15 97.225 90.808 0.273 181.603 0.396 272.589-0.287 5.42-76.268-4.642-157.423-51.459-220.474-70.956-99.779-213.388-128.956-324.499-86.193-111.534 42.503-190.505 160.304-181.098 280.371zM797.955 570.648h81.046c0.164-27.088 0.3-54.299 0.587-81.428 27.088-0.232 54.313-0.232 81.401-0.532v-81.019c-27.088-0.246-54.19-0.437-81.401-0.669-0.287-27.252-0.423-54.34-0.587-81.442h-81.169c-0.273 27.088-0.273 54.19-0.546 81.278-27.088 0.287-54.313 0.587-81.388 0.833v81.019c27.075 0.3 54.231 0.41 81.388 0.532 0.109 27.252 0.396 54.34 0.669 81.428z" />
<glyph unicode="&#xe90d;" glyph-name="creative" d="M638.58 124.512h-253.16c-15.524 0-28.126 12.616-28.126 28.14v74.752c-78.466 51.842-126.58 140.288-126.58 234.673 0 155.116 126.184 281.3 281.3 281.3 155.088 0 281.286-126.184 281.286-281.3 0-94.385-48.101-182.832-126.566-234.673v-74.752c-0.014-15.537-12.629-28.14-28.153-28.14zM413.546 180.777h196.908v62.273c0 10.049 5.338 19.306 14.022 24.344 69.441 40.209 112.531 114.797 112.531 194.669 0 124.081-100.939 225.034-225.007 225.034s-225.034-100.953-225.034-225.034c0-79.872 43.131-154.46 112.544-194.669 8.697-5.038 14.036-14.295 14.036-24.344v-62.273zM652.643 68.26c0 15.524-12.588 28.14-28.112 28.14h-225.048c-15.524 0-28.126-12.616-28.126-28.14 0-15.551 12.602-28.14 28.126-28.14h225.048c15.524 0.014 28.112 12.602 28.112 28.14zM627.657-16.131c0 15.524-12.616 28.14-28.14 28.14h-175.049c-15.524 0-28.126-12.616-28.126-28.14s12.602-28.14 28.126-28.14h175.049c15.524 0 28.14 12.616 28.14 28.14zM540.14 827.74v84.391c0 15.524-12.616 28.126-28.14 28.126-15.537 0-28.126-12.602-28.126-28.126v-84.391c0-15.524 12.588-28.126 28.126-28.126 15.524 0 28.14 12.602 28.14 28.126zM263.386 736.413l-59.679 59.665c-10.964 10.977-28.795 10.977-39.786-0.014-10.977-10.964-10.977-28.781 0-39.772l59.665-59.665c10.991-10.991 28.809-10.991 39.772 0 11.005 10.991 11.005 28.795 0.027 39.786zM800.427 696.614l59.679 59.679c10.991 10.964 10.991 28.795 0 39.772-10.991 10.991-28.795 10.991-39.786 0l-59.679-59.651c-10.964-10.991-10.964-28.795 0-39.772 10.991-11.005 28.795-11.005 39.786-0.027zM990.181 462.063c0 15.524-12.588 28.14-28.14 28.14h-84.378c-15.551 0-28.14-12.602-28.14-28.14s12.588-28.126 28.14-28.126h84.378c15.565 0 28.14 12.602 28.14 28.126zM174.449 462.063c0 15.524-12.616 28.14-28.126 28.14h-84.391c-15.524 0-28.126-12.602-28.126-28.14s12.602-28.126 28.126-28.126h84.391c15.524 0 28.126 12.602 28.126 28.126z" />
<glyph unicode="&#xe90e;" glyph-name="instagram" d="M511.741 137.987c-41.82 0.751-83.64 1.133-125.46 2.335-36.099 1.024-71.079 7.537-102.4 26.788-41.042 25.218-66.123 62.259-74.124 109.295-4.779 28.167-6.458 57.057-6.895 85.647-0.942 61.263-0.573 122.566 0.096 183.856 0.341 32.509 1.42 65.14 12.247 96.393 20.78 59.924 62.956 96.283 124.573 108.121 27.976 5.379 57.016 6.567 85.62 7.018 61.495 0.928 123.017 0.573 184.511-0.096 32.29-0.355 64.703-1.434 95.764-12.165 60.198-20.78 96.734-63.051 108.503-124.996 5.325-28.003 6.54-57.030 6.963-85.62 0.928-61.276 0.587-122.566-0.109-183.856-0.341-32.509-1.42-65.14-12.233-96.406-20.78-59.924-62.942-96.311-124.573-108.134-27.976-5.379-57.003-5.967-85.62-7.086-28.904-1.133-57.89-0.259-86.835-0.259-0.014-0.246-0.027-0.56-0.027-0.833zM766.88 453.311c-0.423 0.014-0.847 0.014-1.283 0.027 0 24.439 0.505 48.879-0.15 73.277-0.601 23.484-1.488 47.036-3.878 70.369-5.325 52.347-36.468 88.446-88.064 98.208-27.539 5.216-56.115 5.939-84.282 6.458-51.555 0.969-103.151 0.847-154.72 0.041-26.61-0.41-53.466-1.352-79.695-5.42-44.769-6.95-75.353-32.631-87.723-77.046-3.959-14.227-6.281-29.314-6.622-44.073-1.324-56.061-2.157-112.148-1.966-168.223 0.123-35.663 0.942-71.462 4.041-106.988 4.574-52.565 36.004-88.528 87.6-98.427 27.73-5.325 56.579-6.007 84.951-6.54 51.337-0.969 102.7-0.669 154.037-0.109 23.934 0.273 47.91 1.57 71.721 3.919 22.064 2.185 42.721 9.393 60.457 23.511 28.74 22.856 39.881 54.368 41.547 89.334 2.28 47.186 2.744 94.467 4.028 141.681zM511.508 289.294c-88.296 0.041-158.556 71.025-158.515 160.181 0.027 87.859 71.448 157.928 160.836 157.846 87.258-0.096 157.273-71.735 157.191-160.85-0.109-86.767-71.598-157.204-159.512-157.177zM512.123 345.149c56.634 0.096 103.137 46.735 103.042 103.301-0.109 56.607-46.804 103.206-103.301 103.014-56.689-0.177-103.124-46.722-103.014-103.287 0.082-56.593 46.763-103.165 103.274-103.028zM677.943 650.738c20.876-0.177 36.741-16.657 36.495-37.943-0.246-20.289-17.34-37.001-37.478-36.632-20.657 0.355-37.519 17.572-37.11 37.902 0.41 20.753 17.121 36.85 38.093 36.673z" />
<glyph unicode="&#xe90f;" glyph-name="linkedin" d="M552.632 500.756c8.506 9.994 16.029 19.729 24.48 28.59 21.763 22.828 48.988 35.239 79.954 39.308 30.119 3.959 59.761 1.488 88.46-9.148 33.806-12.52 59.174-34.939 76.513-66.355 20.098-36.386 26.16-76.117 26.296-116.954 0.246-81.592 0.082-163.171 0.068-244.75 0-1.434-0.177-2.867-0.287-4.547h-143.961c0 2.485 0 4.615 0 6.772 0 73.673 0 147.347 0 221.020 0.014 19.169-1.311 38.188-7.796 56.47-11.264 31.73-37.041 47.35-70.533 45.111-34.693-2.321-60.839-27.184-69.605-56.893-3.249-11.032-3.413-23.224-3.441-34.898-0.287-76.623-0.164-153.245-0.164-229.868 0-2.348 0-4.724 0-7.605h-143.783v433.234c1.884 0 3.823 0 5.762 0 43.909 0 87.832-0.096 131.727 0.109 5.12 0.014 6.513-1.447 6.417-6.485-0.314-15.797-0.123-31.594-0.123-47.391v-5.721zM328.172 560.244v-433.698c-2.103 0-3.891 0-5.68 0-43.895 0-87.791 0.096-131.686-0.123-5.202-0.027-6.376 1.543-6.362 6.513 0.109 140.302 0.109 280.631 0 420.932 0 5.024 1.256 6.513 6.403 6.499 43.895-0.218 87.791-0.109 131.686-0.109h5.639zM254.758 619.404c-27.607 0.027-51.2 9.926-66.929 34.12-27.225 41.861-7.168 96.939 40.632 111.22 27.689 8.288 54.845 6.595 79.080-10.417 24.207-16.985 33.178-41.711 29.669-70.356-3.495-28.727-19.852-48.647-47.036-58.505-10.732-3.878-33.055-6.076-35.417-6.062z" />
<glyph unicode="&#xe910;" glyph-name="pinterest" d="M469.579 345.245c-6.567-25.641-13.885-50.34-19.142-75.435-11.441-54.777-37.424-102.263-70.833-146.227-2.908-3.823-7.55-9.339-11.046-9.079-6.827 0.451-4.601 8.206-5.27 12.834-8.356 57.262-4.956 113.609 9.926 169.807 14.923 56.361 27.225 113.405 40.387 170.216 0.819 3.509-0.123 7.796-1.352 11.346-11.674 33.806-13.735 67.68-0.969 101.649 5.571 14.841 14.131 27.744 26.569 37.806 11.114 8.97 23.729 14.090 38.175 14.213 27.498 0.205 46.79-16.48 51.227-43.786 3.359-20.685-1.393-40.4-6.799-59.938-7.782-28.085-16.084-56.033-24.508-83.927-15.524-51.473 28.167-89.989 78.63-77.428 21.791 5.434 38.721 18.268 52.702 35.28 20.535 24.986 32.413 54.135 39.813 85.251 8.301 34.884 12.902 70.287 7.509 105.964-9.557 63.010-46.886 101.99-108.271 116.149-59.269 13.667-115.739 5.625-165.943-31.061-63.638-46.49-81.661-127.331-67.857-181.48 3.864-15.114 10.8-28.727 21.094-40.387 6.185-7.004 7.96-14.227 5.12-23.211-2.813-8.929-4.588-18.186-6.991-27.279-3.195-12.029-10.226-15.442-21.777-10.377-33.792 14.787-54.6 41.465-65.399 75.612-23.484 74.26-9.967 142.909 35.922 204.923 41.82 56.511 99.601 87.654 168.073 99.505 49.179 8.492 98.277 7.905 145.845-8.806 78.275-27.484 130.594-79.94 150.91-161.683 8.247-33.246 5.775-66.888 0.86-100.311-6.963-47.172-22.432-91.191-51.569-129.488-37.656-49.521-87.409-76.663-150.036-76.964-38.27-0.246-70.902 13.708-95 46.312z" />
<glyph unicode="&#xe911;" glyph-name="distribution" d="M164.878 411.532c-1.311 0-2.266 0-3.263 0.15-13.694 1.802-23.62 14.513-22.077 28.303 14.513 115.193 79.899 215.777 179.364 275.893 15.237 9.202 31.198 17.367 47.5 24.289l4.314 1.83 0.082 4.697c0.177 10.8 1.502 21.122 3.932 30.693 8.547 35.226 30.474 65.017 61.754 83.927 21.286 12.861 45.507 19.661 70.028 19.661 11.046 0 22.159-1.365 33.055-4.055 35.185-8.533 64.976-30.474 83.886-61.768 7.182-11.974 3.345-27.539-8.547-34.693-3.946-2.362-8.465-3.618-13.039-3.618h-0.014c-8.998 0-17.080 4.547-21.654 12.165-11.851 19.565-30.543 33.355-52.661 38.871-6.758 1.707-13.694 2.553-20.63 2.553-15.469 0-30.72-4.273-44.128-12.397-40.4-24.453-53.425-77.182-28.986-117.583 15.66-25.887 43.104-41.342 73.4-41.342 15.537 0 30.816 4.273 44.169 12.356 3.919 2.335 8.424 3.604 13.025 3.604 8.984 0 17.080-4.547 21.654-12.179 3.468-5.775 4.506-12.588 2.895-19.156-1.638-6.567-5.693-12.083-11.441-15.537-21.272-12.807-45.548-19.565-70.164-19.565-47.541 0-92.324 25.259-116.832 65.877-2.075 3.645-4.11 7.209-5.816 10.759l-3.086 6.513-6.526-3.086c-10.103-4.779-20.166-10.199-29.901-16.070-86.166-51.951-142.787-139.087-155.348-239.029-1.488-12.602-12.247-22.064-24.945-22.064zM816.783 76.984c-13.94 0-25.286 11.36-25.286 25.313s11.346 25.286 25.286 25.286c47.213 0 85.62 38.407 85.62 85.62s-38.407 85.62-85.62 85.62-85.62-38.407-85.62-85.62c0-13.94-11.346-25.286-25.3-25.286s-25.286 11.346-25.286 25.286c0 75.093 61.099 136.206 136.192 136.206 4.26 0 8.192-0.164 12.397-0.505l7.823-0.655v7.673l0.014 0.096c0.055 0.314 0.15 0.833 0.164 1.42l0.56 5.53v0.369c0 0.218 0.027 0.41 0.041 0.628 0.082 0.546 0.123 1.106 0.137 1.666 0.082 0.86 0.137 1.72 0.191 2.567 0.027 0.724 0.055 1.42 0.137 2.103l0.055 0.41v0.382c0 0.259 0.014 0.519 0.055 0.792 0.068 0.737 0.137 1.447 0.137 2.103 0 0.778 0.027 1.488 0.082 2.239 0.041 0.956 0.096 1.966 0.096 3.004v2.307c0.177 2.84 0.177 5.448 0.177 7.987 0 100.666-45.302 194.178-124.314 256.573-5.311 4.219-8.697 10.24-9.489 16.957-0.819 6.717 1.065 13.298 5.257 18.569 4.902 6.185 12.192 9.694 20.016 9.694 5.693 0 11.073-1.857 15.551-5.42 91.259-71.939 143.578-179.883 143.578-296.195 0-1.447-0.027-2.935-0.082-4.383-0.041-1.434-0.096-2.854-0.096-4.273-0.191-1.393-0.191-2.567-0.191-3.604 0-2.062 0-3.864-0.164-5.734l-0.014-0.287v-0.3c0-0.369-0.041-0.765-0.068-1.161-0.068-0.778-0.109-1.556-0.109-2.28 0-1.611-0.177-3.386-0.328-5.229l-0.027-0.328-0.014-0.396c0-0.969 0-1.748-0.082-2.225l-0.055-0.3-0.587-7.1v-0.3c0-0.451 0-1.079-0.027-1.297l-0.082-0.287-0.014-0.3c-0.505-4.287-1.038-8.875-1.789-13.626l-0.71-4.738 4.041-2.499c40.223-25.054 64.13-68.308 63.966-115.78-0.014-75.162-61.126-136.288-136.219-136.288zM509.365 15.039c-64.048 0-127.618 16.671-183.897 48.155-1.379 0.833-2.744 1.597-4.11 2.389-1.311 0.737-2.608 1.475-3.919 2.266l-0.505 0.287-0.532 0.232c-0.191 0.109-0.396 0.246-0.628 0.369-0.287 0.191-0.573 0.369-0.874 0.56l-5.42 3.236c-0.396 0.246-0.833 0.532-1.283 0.819-0.505 0.3-0.997 0.628-1.461 0.901-0.833 0.546-1.679 1.092-2.54 1.625-0.806 0.519-1.611 1.024-2.362 1.529l-0.369 0.273-0.396 0.191c-0.273 0.137-0.655 0.382-1.065 0.683-0.382 0.246-0.737 0.478-1.106 0.71-0.874 0.614-1.707 1.188-2.54 1.761-0.806 0.546-1.597 1.092-2.43 1.666-0.437 0.328-0.928 0.655-1.406 0.956-0.287 0.205-0.573 0.396-0.833 0.587l-0.232 0.164c-1.12 0.792-2.239 1.597-3.359 2.417-1.147 0.86-2.294 1.666-3.427 2.485-0.314 0.232-0.614 0.423-0.86 0.573-0.505 0.355-0.983 0.737-1.447 1.092-0.655 0.505-1.311 0.997-2.021 1.502l-3.673 2.621-3.973-2.157c-20.289-11.005-43.076-16.807-65.918-16.807-23.252 0-46.135 5.98-66.164 17.299-31.73 17.79-54.613 46.872-64.471 81.934-9.871 35.144-5.434 72.021 12.479 103.875 4.519 8.001 12.971 12.971 22.064 12.971 4.273 0 8.561-1.133 12.356-3.277 12.179-6.84 16.534-22.296 9.708-34.406-22.965-41.192-8.178-93.402 32.945-116.436 13.053-7.195 27.047-10.854 41.643-10.854 31.089 0 59.733 16.78 74.779 43.827 22.951 41.165 8.178 93.375-32.945 116.381-5.912 3.331-10.185 8.752-12.015 15.223s-0.997 13.271 2.321 19.183c4.519 8.001 12.971 12.984 22.050 12.984 4.287 0 8.561-1.133 12.356-3.277 31.689-17.667 54.6-46.681 64.512-81.688 9.912-35.062 5.598-71.871-12.179-103.574-2.034-3.577-4.369-7.141-6.608-10.609l-3.905-5.98 5.953-3.973 0.218-0.177c0.328-0.259 0.655-0.505 1.024-0.778 1.365-1.010 2.881-2.157 4.478-3.154 0.382-0.287 0.819-0.56 1.242-0.86 0.287-0.191 0.573-0.382 0.847-0.587l0.246-0.205 0.259-0.15c0.683-0.41 1.283-0.819 1.911-1.242 0.655-0.423 1.311-0.86 1.98-1.297 0.765-0.573 1.625-1.201 2.744-1.884l0.191-0.096c1.475-0.847 2.813-1.652 4.205-2.54l0.287-0.191 0.314-0.164c0.15-0.068 0.314-0.191 0.478-0.287 0.437-0.287 0.86-0.532 1.311-0.765 1.311-0.833 2.621-1.556 3.905-2.253 0.792-0.423 1.584-0.874 2.389-1.352l1.679-0.969h0.123c48.497-26.883 103.124-41.069 158.051-41.069 42.953 0 85.088 8.41 125.256 24.986 3.099 1.283 6.321 1.925 9.626 1.925 10.281 0 19.456-6.158 23.388-15.688 5.338-12.875-0.86-27.675-13.776-33.027-46.476-19.128-95.15-28.863-144.671-28.863z" />
<glyph unicode="&#xe912;" glyph-name="search" d="M463.421 785.169c8.765-0.86 17.531-1.638 26.283-2.635 56.334-6.362 105.827-28.44 148.275-65.85 49.166-43.336 79.299-97.744 88.924-162.434 10.622-71.516-4.71-137.694-46.162-197.414-6.103-8.806-6.281-6.554 1.27-14.131 50.435-50.476 100.925-100.939 151.388-151.388 1.625-1.625 3.195-3.331 4.437-4.615-25.313-25.354-50.313-50.326-75.844-75.872-1.297 1.229-3.127 2.881-4.847 4.615-52.442 52.401-104.899 104.748-157.204 157.286-3.973 3.973-6.799 4.478-11.933 1.679-32.741-17.9-67.693-29.232-105.021-31.648-110.087-7.1-195.488 36.113-255.768 128.137-21.914 33.437-34.051 70.929-38.393 110.769-0.901 8.356-1.761 16.725-2.635 25.081v12.984c0.41 2.28 0.969 4.56 1.201 6.868 0.997 9.953 1.242 20.029 2.935 29.86 11.428 66.219 42.476 121.474 93.976 164.741 41.533 34.871 89.429 55.446 143.456 61.399 7.96 0.874 15.92 1.72 23.88 2.58h11.783zM458.465 348.849c91.081 0.396 164.345 73.277 164.154 164.782-0.191 91.3-74.547 163.854-166.134 163.321-89.962-0.519-162.679-75.066-162.092-166.188 0.56-88.76 75.203-162.42 164.072-161.915z" />
<glyph unicode="&#xe913;" glyph-name="twitter" d="M839.885 651.38c-24.098-10.704-50.026-17.913-77.237-21.204 27.771 16.657 49.097 43.049 59.146 74.424-26.023-15.415-54.832-26.597-85.443-32.618-24.535 26.16-59.529 42.462-98.181 42.462-74.315 0-134.554-60.211-134.554-134.526 0-10.513 1.188-20.808 3.468-30.652-111.793 5.625-210.985 59.16-277.299 140.547-11.551-19.838-18.2-42.953-18.2-67.625 0-46.694 23.729-87.832 59.843-111.971-22.050 0.696-42.79 6.758-60.935 16.835v-1.72c0-65.167 46.38-119.521 107.875-131.891-11.223-3.099-23.115-4.724-35.403-4.724-8.697 0-17.094 0.833-25.3 2.403 17.080-53.439 66.792-92.351 125.611-93.443-46.025-36.086-103.984-57.549-167.035-57.549-10.827 0-21.531 0.614-32.099 1.843 59.556-38.188 130.253-60.43 206.247-60.43 247.467 0 382.785 205.005 382.785 382.771 0 5.857-0.109 11.66-0.396 17.408 26.269 19.005 49.084 42.667 67.106 69.659z" />
<glyph unicode="&#xe914;" glyph-name="cross" d="M936.96 765.44l-71.68 69.12-353.28-353.28-353.28 353.28-71.68-69.12 353.28-353.28-353.28-353.28 71.68-71.68 353.28 353.28 353.28-353.28 71.68 71.68-353.28 353.28z" />
<glyph unicode="&#xe915;" glyph-name="personal" d="M943.077 467.907h-86.808v204.923c0 65.864-53.576 119.453-119.439 119.453h-204.923v86.808c0 10.991-8.916 19.907-19.907 19.907-11.005 0-19.907-8.916-19.907-19.907v-86.808h-204.923c-65.864 0-119.453-53.576-119.453-119.453v-204.909h-86.794c-11.005 0-19.907-8.916-19.907-19.907s8.902-19.907 19.907-19.907h86.794v-204.937c0-65.864 53.589-119.439 119.453-119.439h204.923v-86.794c0-10.991 8.902-19.907 19.907-19.907 10.991 0 19.907 8.916 19.907 19.907v86.794h204.923c65.864 0 119.439 53.576 119.439 119.439v204.937h86.808c10.991 0 19.907 8.916 19.907 19.907 0 10.977-8.916 19.893-19.907 19.893zM816.469 223.157c0-43.909-35.717-79.613-79.64-79.613h-449.659c-43.909 0-79.64 35.703-79.64 79.613v449.673c0 43.923 35.731 79.64 79.64 79.64h449.659c43.923 0 79.64-35.717 79.64-79.64v-449.673zM512 449.966c64.567 0 117.064 52.524 117.064 117.091 0 64.539-52.511 117.064-117.064 117.064s-117.077-52.524-117.077-117.064c0-64.567 52.524-117.091 117.077-117.091zM512 644.294c42.598 0 77.251-34.666 77.251-77.251 0-42.612-34.652-77.278-77.251-77.278s-77.264 34.666-77.264 77.278c0 42.598 34.666 77.251 77.264 77.251zM512 425.404c-89.361 0-159.362-68.717-159.362-156.467v-57.18h318.723v57.18c0 87.75-70.001 156.467-159.362 156.467zM631.549 251.556h-239.097v17.367c0 65.413 52.511 116.64 119.549 116.64s119.549-51.227 119.549-116.64v-17.367z" />
<glyph unicode="&#xe916;" glyph-name="production" d="M722.739 460.397h-570.218c-41.001 0-74.37-33.382-74.37-74.383v-347.095c0-41.001 33.369-74.356 74.37-74.356h570.218c41.001 0 74.37 33.355 74.37 74.356v347.095c0 41.001-33.369 74.383-74.37 74.383zM747.534 38.919c0-13.653-11.141-24.781-24.794-24.781h-570.218c-13.667 0-24.781 11.127-24.781 24.781v347.095c0 13.653 11.114 24.781 24.781 24.781h570.218c13.653 0 24.794-11.127 24.794-24.781v-347.095zM983.040 432.285c-7.687 4.437-17.108 4.437-24.781 0l-123.959-71.584 24.794-42.94 86.753 50.108v-310.941l-86.617 50.012-24.794-42.953 123.808-71.462c3.837-2.212 8.124-3.331 12.397-3.331s8.547 1.092 12.384 3.331c7.687 4.437 12.397 12.616 12.397 21.463v396.807c0.014 8.861-4.697 17.053-12.384 21.49zM673.15 931.437c-123.017 0-223.123-100.12-223.123-223.136 0-123.003 100.106-223.123 223.123-223.123s223.136 100.12 223.136 223.123c0 123.017-100.12 223.136-223.136 223.136zM673.15 534.753c-95.696 0-173.548 77.838-173.548 173.548 0 95.696 77.851 173.548 173.548 173.548s173.548-77.851 173.548-173.548c0-95.696-77.851-173.548-173.548-173.548zM202.11 485.192c95.71 0 173.534 77.838 173.534 173.534 0 95.71-77.824 173.548-173.534 173.548s-173.548-77.851-173.548-173.548c0-95.696 77.838-173.534 173.548-173.534zM202.11 782.698c68.349 0 123.945-55.61 123.945-123.972 0-68.349-55.596-123.959-123.945-123.959s-123.959 55.61-123.959 123.959c0 68.349 55.61 123.972 123.959 123.972zM673.15 757.89c-27.361 0-49.589-22.228-49.589-49.589 0-27.375 22.228-49.589 49.589-49.589s49.589 22.214 49.589 49.589c0 27.361-22.228 49.589-49.589 49.589zM202.11 633.917c13.681 0 24.781 11.1 24.781 24.794 0 13.681-11.1 24.781-24.781 24.781-13.694 0-24.781-11.1-24.781-24.781-0.014-13.681 11.087-24.794 24.781-24.794z" />
<glyph unicode="&#xe917;" glyph-name="relation" d="M614.113 753.766c3.714-6.608 10.595-10.336 17.695-10.336 3.372 0 6.786 0.847 9.94 2.608 9.762 5.489 13.216 17.859 7.714 27.621-1.925 3.413-3.987 6.772-6.117 9.981-6.212 9.325-18.801 11.837-28.126 5.652-9.325-6.212-11.851-18.801-5.639-28.126 1.57-2.376 3.099-4.874 4.533-7.4zM626.101 486.912c74.192 40.537 124.655 119.303 124.655 209.633 0 131.659-107.124 238.756-238.756 238.756-131.659 0-238.756-107.097-238.756-238.756 0-90.344 50.463-169.097 124.655-209.647-148.944-39.24-259.113-175.049-259.113-336.145v-76.022c0-11.182 9.093-20.275 20.275-20.275h283.17l0.997-43.199c0.71-28.344 30.925-50.545 68.785-50.545 37.847 0 68.076 22.2 68.785 50.599l0.983 43.145h283.143c11.196 0 20.275 9.079 20.275 20.275v76.022c0 161.096-110.155 296.919-259.099 336.159zM313.808 696.545c0 109.281 88.911 198.192 198.192 198.192s198.192-88.911 198.192-198.192c0-72.131-38.748-135.373-96.502-170.039-4.956 12.588-12.233 24.289-21.559 34.365 46.353 27.471 77.524 78.001 77.524 135.687 0 11.196-9.093 20.275-20.275 20.275-11.209 0-20.289-9.079-20.289-20.275 0-49.725-31.171-92.269-74.998-109.213-13.23 5.516-27.525 8.479-42.066 8.479-30.065 0-59.119-12.561-79.695-34.475-9.557-10.172-16.957-22.050-21.982-34.83-57.795 34.652-96.543 97.881-96.543 170.025zM448.635 397.756l-5.284 84.432c-1.201 19.142 5.379 37.396 18.514 51.391 13.148 13.981 30.952 21.681 50.121 21.681 19.183 0 37.001-7.7 50.135-21.681 13.148-13.981 19.702-32.236 18.514-51.391l-5.284-84.432c-0.655-10.458-9.366-18.637-19.838-18.637h-87.054c-10.458 0-19.183 8.192-19.825 18.637zM179.35 95.007v0 55.747c0 141.094 95.683 260.273 225.567 296.059l3.222-51.582c0.341-5.612 1.475-11.018 3.249-16.111h-30.597c-11.196 0-20.275-9.079-20.275-20.262v-176.073c0-11.209 9.079-20.289 20.275-20.289h58.982l1.543-67.475-261.967-0.014zM540.221 12.281c-0.055-2.185-9.271-11.018-28.221-11.018-18.964 0-28.167 8.82-28.235 10.964l-3.427 150.269h63.324l-3.441-150.214zM401.067 203.059v135.509h221.867v-135.509h-221.867zM582.697 95.007l1.543 67.475h58.969c11.196 0 20.275 9.093 20.275 20.289v176.087c0 11.182-9.079 20.275-20.275 20.275h-30.611c1.775 5.079 2.908 10.486 3.249 16.111l3.209 51.569c129.898-35.785 225.567-154.938 225.567-296.059v-55.733l-261.926-0.014z" />
<glyph unicode="&#xe918;" glyph-name="werbung" d="M937.492 665.388c-6.349 8.957-18.76 11.087-27.716 4.751s-11.1-18.76-4.751-27.716c24.344-34.406 37.205-74.916 37.205-117.159 0-42.23-12.848-82.753-37.178-117.173-6.362-8.97-4.233-21.367 4.751-27.716 3.495-2.458 7.496-3.645 11.469-3.645 6.24 0 12.37 2.935 16.247 8.41 29.109 41.178 44.483 89.62 44.483 140.124s-15.387 98.973-44.51 140.124zM751.739 652.609v94.659c0 21.354-11.1 40.346-29.71 50.79-18.732 10.513-40.892 10.103-59.31-1.133-96.215-58.668-207.039-89.675-320.485-89.675v0 0h-145.162c-35.444 0-64.594-27.375-67.488-62.095h-31.812c-30.734 0-55.774-25.013-55.774-55.76v-128.341c0-30.747 25.027-55.76 55.774-55.76h31.812c2.171-26.173 19.279-48.155 42.749-57.399l84.105-232.107c5.502-15.223 20.084-25.45 36.291-25.45h109.363c12.602 0 24.426 6.158 31.648 16.466 7.209 10.308 8.97 23.538 4.669 35.348l-72.718 200.595c105.226-3.987 207.462-34.611 297.015-89.225 9.53-5.816 20.057-8.738 30.611-8.738 9.817 0 19.647 2.54 28.699 7.619 18.596 10.445 29.71 29.423 29.71 50.79v94.727c64.43 6.622 114.838 61.208 114.838 127.358s-50.408 120.723-114.825 127.331zM129.338 445.051h-31.567c-8.82 0-16.002 7.182-16.002 16.002v128.341c0 8.82 7.182 16.002 16.002 16.002h31.567v-160.345zM400.493 130.109h-106.947l-77.21 213.088h106.906l77.251-213.088zM702.56 287.082c-2.908-1.625-10.554-4.833-19.128 0.396-102.455 62.464-220.447 95.478-341.197 95.478h-145.176c-15.401 0-27.962 12.561-27.962 27.976v228.584c0 15.415 12.547 27.962 27.962 27.962h120.149v-207.544c0-10.991 8.902-19.879 19.893-19.879 10.977 0 19.879 8.888 19.879 19.879v207.735c115.603 2.567 228.175 35.376 326.451 95.3 8.574 5.243 16.234 2.021 19.128 0.396 2.826-1.584 9.393-6.335 9.393-16.111v-444.075c0.014-9.776-6.567-14.527-9.393-16.097zM751.739 437.992v174.544c42.421-6.39 75.080-43.090 75.080-87.272s-32.659-80.896-75.080-87.272z" />
<glyph unicode="&#xe919;" glyph-name="arrow-down" d="M713.783 193.98c-4.164 4.314-11.796 4.628-16.179 0.532l-174.203-163.895v861.102c0 6.281-5.093 11.36-11.373 11.36-6.294 0-11.373-5.079-11.373-11.36v-861.102l-174.217 163.895c-4.369 4.11-12.083 3.85-16.179-0.532-4.096-4.369-4.192-11.414 0.546-16.166l193.413-182.054c5.325-4.314 11.851-3.181 15.647 0l193.386 182.054c4.615 4.396 4.642 11.919 0.532 16.166z" />
<glyph unicode="&#xea1c;" glyph-name="play3" d="M192 832l640-384-640-384z" />
</font>
</defs>
</svg>
